{"title":"Essex Vendetta 2016 Movies HDRip XviD AAC New with Sample ☻rDX☻","uid":13848992,"size":739978078,"categoryP":"video","categoryS":"movies","magnet":"?xt=urn:btih:108e3c319f5af4c99a0343b1ed0411df0c2e56ae&amp;dn=Essex+Vendetta+2016+Movies+HDRip+XviD+AAC+New+with+Sample+%E2%98%BBrDX%E2%98%BB&amp;tr=udp%3A%2F%2Ftracker.leechers-paradise.org%3A6969&amp;tr=udp%3A%2F%2Fzer0day.ch%3A1337&amp;tr=udp%3A%2F%2Fopen.demonii.com%3A1337&amp;tr=udp%3A%2F%2Ftracker.coppersurfer.tk%3A6969&amp;tr=udp%3A%2F%2Fexodus.desync.com%3A6969","seeders":0,"leechers":0,"uploader":"basicssom","files":2,"time":1457934595,"description":"----------------------------------------------------------------\r\nEssex Vendetta 2016 English Movies HDRip XviD AAC New Source with Sample ~ ☻rDX☻\r\n\r\nSCREEN SHOTS &amp; POSTER:\r\n  \nhttp://mobileshosting.com/2016/3/EssexVendetta/index.htm  \nhttp://mobileshosting.com/2016/3/EssexVendetta/1.html  \nhttp://mobileshosting.com/2016/3/EssexVendetta/2.html  \nhttp://mobileshosting.com/2016/3/EssexVendetta/3.html  \nhttp://mobileshosting.com/2016/3/EssexVendetta/4.html  \nhttp://mobileshosting.com/2016/3/EssexVendetta/5.html  \nhttp://mobileshosting.com/2016/3/EssexVendetta/6.html  \nhttp://mobileshosting.com/2016/3/EssexVendetta/7.html  \nhttp://mobileshosting.com/2016/3/EssexVendetta/8.html  \nhttp://mobileshosting.com/2016/3/EssexVendetta/9.html  \nhttp://mobileshosting.com/2016/3/EssexVendetta/10.html\r\n\r\nFormat                                   : Matroska\r\nFormat version                           : Version 4 / Version 2\r\nFile size                                : 694 MiB\r\nDuration                                 : 1h 29mn\r\nOverall bit rate                         : 1 080 Kbps\r\nMovie name                               : Essex Vendetta 2016 English Movies HDRip XviD AAC New Source ☻rDX☻\r\n\r\nVideo\r\nID                                       : 1\r\nFormat                                   : MPEG-4 Visual\r\nFormat profile                           : Advanced   \r\nFormat settings, BVOP                    : Yes\r\nFormat settings, QPel                    : No\r\nFormat settings, GMC                     : No warppoints\r\nFormat settings, Matrix                  : Default (H.263)\r\nCodec ID                                 : V_MS/VFW/FOURCC / XVID\r\nCodec ID/Hint                            : XviD\r\nDuration                                 : 1h 29mn\r\nBit rate                                 : 930 Kbps\r\nWidth                                    : 640 pixels\r\nHeight                                   : 352 pixels\r\nDisplay aspect ratio                     : 16:9\r\nFrame rate mode                          : Constant\r\nFrame rate                               : 23.976 fps\r\nColor space                              : YUV\r\nChroma subsampling                       : 4:2:0\r\nBit depth                                : 8 bits\r\nScan type                                : Progressive\r\nCompression mode                         : Lossy\r\nBits/(Pixel*Frame)                       : 0.172\r\nStream size                              : 598 MiB (86%)\r\nTitle                                    : ☻rDX☻\r\nWriting library                          : XviD 67\r\nDefault                                  : Yes\r\nForced                                   : No\r\n\r\nAudio\r\nID                                       : 2\r\nFormat                                   : MPEG Audio\r\nFormat version                           : Version 1\r\nFormat profile                           : Layer 3\r\nMode                                     : Joint stereo\r\nMode extension                           : MS Stereo\r\nCodec ID                                 : A_MPEG/L3\r\nCodec ID/Hint                            : MP3\r\nDuration                                 : 1h 29mn\r\nBit rate mode                            : Constant\r\nBit rate                                 : 128 Kbps\r\nChannel(s)                               : 2 channels\r\nSampling rate                            : 48.0 KHz\r\nCompression mode                         : Lossy\r\nStream size                              : 82.3 MiB (12%)\r\nTitle                                    : ☻rDX☻\r\nWriting library                          : LAME3.99r\r\nEncoding settings                        : -m j -V 4 -q 3 -lowpass 17 -b 128\r\nDefault                                  : Yes\r\nForced                                   : No\r\n\r\nIMDB                                      \nhttp://www.imdb.com/title/tt3579842/","torrent":{"xt":"urn:btih:108e3c319f5af4c99a0343b1ed0411df0c2e56ae","amp;dn":"Essex+Vendetta+2016+Movies+HDRip+XviD+AAC+New+with+Sample+%E2%98%BBrDX%E2%98%BB","amp;tr":["udp%3A%2F%2Ftracker.leechers-paradise.org%3A6969","udp%3A%2F%2Fzer0day.ch%3A1337","udp%3A%2F%2Fopen.demonii.com%3A1337","udp%3A%2F%2Ftracker.coppersurfer.tk%3A6969","udp%3A%2F%2Fexodus.desync.com%3A6969"],"infoHash":"108e3c319f5af4c99a0343b1ed0411df0c2e56ae","infoHashBuffer":{"type":"Buffer","data":[16,142,60,49,159,90,244,201,154,3,67,177,237,4,17,223,12,46,86,174]},"announce":[],"urlList":[]}}